<svg version="1.1" id="Layer_1" xmlns="http://www.w3.org/2000/svg" xmlns:xlink="http://www.w3.org/1999/xlink" x="0px" y="0px"
	 width="100%" viewBox="0 0 225 225" enable-background="new 0 0 225 225" xml:space="preserve">
<path fill="#FFFFFF" opacity="1.000000" stroke="none" 
	d="
M103.000000,226.000000 
	C68.666672,226.000000 34.833336,226.000000 1.000005,226.000000 
	C1.000003,151.000000 1.000003,76.000015 1.000002,1.000015 
	C75.999992,1.000010 150.999985,1.000010 225.999969,1.000005 
	C225.999985,75.999985 225.999985,150.999969 226.000000,225.999969 
	C185.166672,226.000000 144.333328,226.000000 103.000000,226.000000 
M182.943588,109.122185 
	C182.044464,108.520164 181.145355,107.918137 179.840622,106.824615 
	C171.809601,104.027763 168.524933,97.288078 165.872665,90.019669 
	C165.759506,89.709549 165.572220,89.427261 165.433304,89.125648 
	C161.446945,80.469620 154.957642,74.141815 146.608658,69.867332 
	C142.565598,67.797379 138.127441,66.345306 133.714401,65.212585 
	C131.276855,64.586929 128.521362,65.199928 125.909210,65.254547 
	C126.432030,67.639748 126.557442,70.206512 127.549309,72.377411 
	C131.069138,80.081238 137.408096,86.837433 134.348312,96.537521 
	C133.664536,98.705292 134.213974,101.643410 135.135895,103.830521 
	C136.083313,106.078102 138.181381,107.840668 139.775925,109.815483 
	C141.183548,108.141350 142.591171,106.467216 143.906311,104.903084 
	C145.411026,106.687096 147.182602,108.787483 148.954163,110.887878 
	C149.175995,110.709435 149.397827,110.530998 149.619659,110.352554 
	C147.531097,106.347000 145.442520,102.341438 142.747269,97.172333 
	C141.329254,101.060448 140.308624,103.858932 139.059509,107.283943 
	C136.100998,102.381599 135.528214,97.732841 136.984100,92.706703 
	C137.435638,91.147827 138.332092,89.175468 137.778427,87.960342 
	C135.185547,82.269829 132.168274,76.772018 129.277725,71.218307 
	C128.575287,69.868690 127.778687,68.568069 127.025398,67.244919 
	C127.352470,66.821091 127.679550,66.397263 128.006622,65.973434 
	C130.169067,66.857040 132.344528,67.710472 134.489227,68.635239 
	C135.841278,69.218231 137.095749,70.308441 138.482117,70.487099 
	C150.758789,72.069153 158.081482,80.065605 162.734344,90.411270 
	C166.503387,98.791702 169.961746,106.752892 180.356705,109.454582 
	C181.003555,109.848763 181.650421,110.242943 182.797287,111.121605 
	C182.499054,111.730118 182.317902,112.755791 181.883148,112.877815 
	C179.496338,113.547714 177.047409,113.996284 174.619812,114.520844 
	C174.447418,115.233269 174.275024,115.945686 174.102646,116.658104 
	C178.022369,119.282707 181.942093,121.907310 185.861816,124.531914 
	C186.196915,124.063637 186.532013,123.595352 186.867111,123.127075 
	C184.224030,121.025253 181.580948,118.923439 178.338531,116.345016 
	C181.771332,115.419083 184.468338,114.691620 188.126709,113.704842 
	C186.012299,111.898865 184.682877,110.763367 182.943588,109.122185 
M38.376701,138.505890 
	C38.603104,137.508850 38.829506,136.511795 39.316372,134.367691 
	C42.079765,142.894882 44.358784,150.322922 46.961472,157.635773 
	C47.502975,159.157257 49.243031,160.252136 50.430729,161.543625 
	C51.609913,160.232651 53.337296,159.113846 53.875618,157.578217 
	C56.539852,149.978195 58.889877,142.268005 61.350674,134.596664 
	C61.652061,134.635071 61.953449,134.673477 62.254833,134.711868 
	C62.822803,143.472427 63.390774,152.232971 63.967285,161.125244 
	C65.006638,161.291550 65.800812,161.510376 66.598129,161.522568 
	C67.558952,161.537231 68.522446,161.376419 70.247246,161.224335 
	C69.244553,149.005219 68.264977,137.067673 67.322662,125.584343 
	C61.127453,123.707565 59.033310,126.136711 57.773209,131.011627 
	C56.100769,137.481735 53.614548,143.741501 51.478001,150.091629 
	C48.345592,143.708099 46.182549,137.355515 44.110401,130.973419 
	C41.882000,124.110085 41.919216,124.098000 34.189911,125.802559 
	C33.347210,137.453156 32.491585,149.282425 31.647375,160.953934 
	C36.022530,162.206039 37.787460,161.427277 37.728992,157.302505 
	C37.644226,151.322388 38.073505,145.334961 38.376701,138.505890 
M154.147797,164.668137 
	C156.745880,159.661926 149.948288,161.726471 149.782776,158.569595 
	C155.061096,151.821930 155.707977,143.950745 154.028290,135.663483 
	C152.721786,129.217453 149.213623,125.686279 143.353775,124.837799 
	C136.355698,123.824524 130.736740,126.106056 128.069092,131.809219 
	C124.450630,139.545059 124.311890,147.721832 127.919983,155.391983 
	C129.134247,157.973267 132.529205,160.594940 135.330185,161.144043 
	C141.360916,162.326309 147.658600,162.146698 153.020294,165.848282 
	C153.117523,165.915375 153.536621,165.516190 154.147797,164.668137 
M120.254936,127.128136 
	C117.548851,126.444229 114.877647,125.458321 112.129234,125.140839 
	C106.807732,124.526115 102.511887,127.014908 101.134415,131.076279 
	C99.473557,135.973190 101.220741,140.005341 106.368874,143.112610 
	C108.922112,144.653671 111.784142,145.847855 113.943893,147.816254 
	C115.306854,149.058472 116.549278,151.667068 116.161293,153.249863 
	C115.771843,154.838669 113.439987,156.698776 111.693497,157.027557 
	C109.239624,157.489517 106.544876,156.520004 103.943604,156.425613 
	C102.900200,156.387741 101.831474,157.047684 100.774269,157.389999 
	C101.313629,158.233597 101.767403,159.732071 102.406113,159.815567 
	C106.879929,160.400269 111.486145,161.428940 115.864845,160.868622 
	C120.118240,160.324341 122.473129,156.617462 122.932953,152.269287 
	C123.363693,148.196075 121.339500,145.255386 117.943367,143.220627 
	C115.667984,141.857346 113.293190,140.660492 111.010544,139.308685 
	C108.341728,137.728195 105.767609,135.874496 106.978928,132.239761 
	C108.211876,128.540146 111.543121,128.943848 114.524223,129.072845 
	C115.656517,129.121857 116.845161,129.967377 117.871468,129.763123 
	C118.851692,129.568039 119.654236,128.480133 120.254936,127.128136 
M74.879128,140.720551 
	C76.435547,145.623093 78.006210,150.521164 79.545265,155.429153 
	C82.294266,164.195587 81.388474,165.745834 72.151749,168.246292 
	C73.402344,169.516525 75.390602,171.268600 76.370224,170.819687 
	C79.689278,169.298660 83.502602,167.641830 85.591896,164.876862 
	C92.151772,156.195541 94.097740,145.667221 96.191353,135.088882 
	C92.488075,134.040939 90.390732,134.119904 89.807838,138.622818 
	C89.069130,144.329514 87.353264,149.909698 85.752182,156.879120 
	C83.606224,149.937958 81.634781,144.487320 80.282547,138.887177 
	C79.246971,134.598465 77.135292,133.621490 73.084778,135.161026 
	C73.637871,136.871750 74.138962,138.421616 74.879128,140.720551 
M160.023361,136.520676 
	C160.023361,144.649567 160.023361,152.778458 160.023361,161.445236 
	C164.952576,161.445236 169.580856,161.561676 174.194382,161.352524 
	C175.183914,161.307663 176.120041,160.084427 177.080765,159.404022 
	C176.188965,158.608704 175.363663,157.240143 174.392654,157.127518 
	C171.679993,156.812866 168.907028,157.018066 165.827515,157.018066 
	C165.827515,145.995255 165.827515,135.737839 165.827515,125.313866 
	C163.767410,125.313866 162.065140,125.313866 160.023376,125.313866 
	C160.023376,128.929016 160.023376,132.228851 160.023361,136.520676 
z"/>
<path fill="#618AA3" opacity="1.000000" stroke="none" 
	d="
M38.330116,138.928284 
	C38.073505,145.334961 37.644226,151.322388 37.728992,157.302505 
	C37.787460,161.427277 36.022530,162.206039 31.647375,160.953934 
	C32.491585,149.282425 33.347210,137.453156 34.189911,125.802559 
	C41.919216,124.098000 41.882000,124.110085 44.110401,130.973419 
	C46.182549,137.355515 48.345592,143.708099 51.478001,150.091629 
	C53.614548,143.741501 56.100769,137.481735 57.773209,131.011627 
	C59.033310,126.136711 61.127453,123.707565 67.322662,125.584343 
	C68.264977,137.067673 69.244553,149.005219 70.247246,161.224335 
	C68.522446,161.376419 67.558952,161.537231 66.598129,161.522568 
	C65.800812,161.510376 65.006638,161.291550 63.967285,161.125244 
	C63.390774,152.232971 62.822803,143.472427 62.254833,134.711868 
	C61.953449,134.673477 61.652061,134.635071 61.350674,134.596664 
	C58.889877,142.268005 56.539852,149.978195 53.875618,157.578217 
	C53.337296,159.113846 51.609913,160.232651 50.430729,161.543625 
	C49.243031,160.252136 47.502975,159.157257 46.961472,157.635773 
	C44.358784,150.322922 42.079765,142.894882 39.316372,134.367691 
	C38.829506,136.511795 38.603104,137.508850 38.330116,138.928284 
z"/>
<path fill="#F89A22" opacity="1.000000" stroke="none" 
	d="
M153.976669,165.001358 
	C153.536621,165.516190 153.117523,165.915375 153.020294,165.848282 
	C147.658600,162.146698 141.360916,162.326309 135.330185,161.144043 
	C132.529205,160.594940 129.134247,157.973267 127.919983,155.391983 
	C124.311890,147.721832 124.450630,139.545059 128.069092,131.809219 
	C130.736740,126.106056 136.355698,123.824524 143.353775,124.837799 
	C149.213623,125.686279 152.721786,129.217453 154.028290,135.663483 
	C155.707977,143.950745 155.061096,151.821930 149.782776,158.569595 
	C149.948288,161.726471 156.745880,159.661926 153.976669,165.001358 
M132.737427,134.680222 
	C132.592468,139.938171 132.080902,145.219437 132.413208,150.447052 
	C132.703033,155.006348 136.441132,158.027618 140.349945,157.955521 
	C143.945312,157.889175 147.486771,154.903809 147.821335,150.532501 
	C148.184128,145.792130 148.249207,140.976990 147.841980,136.246307 
	C147.523605,132.547424 145.369339,129.676056 141.332947,129.100067 
	C137.397980,128.538544 134.580597,130.215683 132.737427,134.680222 
z"/>
<path fill="#658DA6" opacity="1.000000" stroke="none" 
	d="
M180.000031,108.999756 
	C169.961746,106.752892 166.503387,98.791702 162.734344,90.411270 
	C158.081482,80.065605 150.758789,72.069153 138.482117,70.487099 
	C137.095749,70.308441 135.841278,69.218231 134.489227,68.635239 
	C132.344528,67.710472 130.169067,66.857040 128.006622,65.973434 
	C127.679550,66.397263 127.352470,66.821091 127.025398,67.244919 
	C127.778687,68.568069 128.575287,69.868690 129.277725,71.218307 
	C132.168274,76.772018 135.185547,82.269829 137.778427,87.960342 
	C138.332092,89.175468 137.435638,91.147827 136.984100,92.706703 
	C135.528214,97.732841 136.100998,102.381599 139.059509,107.283943 
	C140.308624,103.858932 141.329254,101.060448 142.747269,97.172333 
	C145.442520,102.341438 147.531097,106.347000 149.619659,110.352554 
	C149.397827,110.530998 149.175995,110.709435 148.954163,110.887878 
	C147.182602,108.787483 145.411026,106.687096 143.906311,104.903084 
	C142.591171,106.467216 141.183548,108.141350 139.775909,109.815475 
	C138.181381,107.840668 136.083313,106.078102 135.135895,103.830521 
	C134.213974,101.643410 133.664536,98.705292 134.348312,96.537521 
	C137.408096,86.837433 131.069138,80.081238 127.549309,72.377411 
	C126.557442,70.206512 126.432030,67.639748 125.909210,65.254547 
	C128.521362,65.199928 131.276855,64.586929 133.714401,65.212585 
	C138.127441,66.345306 142.565598,67.797379 146.608658,69.867332 
	C154.957642,74.141815 161.446945,80.469620 165.433304,89.125648 
	C165.572220,89.427261 165.759506,89.709549 165.872665,90.019669 
	C168.524933,97.288078 171.809601,104.027763 179.968018,107.490234 
	C180.063614,108.437157 180.031815,108.718460 180.000031,108.999756 
z"/>
<path fill="#F89A20" opacity="1.000000" stroke="none" 
	d="
M120.394913,127.456413 
	C119.654236,128.480133 118.851692,129.568039 117.871468,129.763123 
	C116.845161,129.967377 115.656517,129.121857 114.524223,129.072845 
	C111.543121,128.943848 108.211876,128.540146 106.978928,132.239761 
	C105.767609,135.874496 108.341728,137.728195 111.010544,139.308685 
	C113.293190,140.660492 115.667984,141.857346 117.943367,143.220627 
	C121.339500,145.255386 123.363693,148.196075 122.932953,152.269287 
	C122.473129,156.617462 120.118240,160.324341 115.864845,160.868622 
	C111.486145,161.428940 106.879929,160.400269 102.406113,159.815567 
	C101.767403,159.732071 101.313629,158.233597 100.774269,157.389999 
	C101.831474,157.047684 102.900200,156.387741 103.943604,156.425613 
	C106.544876,156.520004 109.239624,157.489517 111.693497,157.027557 
	C113.439987,156.698776 115.771843,154.838669 116.161293,153.249863 
	C116.549278,151.667068 115.306854,149.058472 113.943893,147.816254 
	C111.784142,145.847855 108.922112,144.653671 106.368874,143.112610 
	C101.220741,140.005341 99.473557,135.973190 101.134415,131.076279 
	C102.511887,127.014908 106.807732,124.526115 112.129234,125.140839 
	C114.877647,125.458321 117.548851,126.444229 120.394913,127.456413 
z"/>
<path fill="#618AA3" opacity="1.000000" stroke="none" 
	d="
M74.759590,140.346008 
	C74.138962,138.421616 73.637871,136.871750 73.084778,135.161026 
	C77.135292,133.621490 79.246971,134.598465 80.282547,138.887177 
	C81.634781,144.487320 83.606224,149.937958 85.752182,156.879120 
	C87.353264,149.909698 89.069130,144.329514 89.807838,138.622818 
	C90.390732,134.119904 92.488075,134.040939 96.191353,135.088882 
	C94.097740,145.667221 92.151772,156.195541 85.591896,164.876862 
	C83.502602,167.641830 79.689278,169.298660 76.370224,170.819687 
	C75.390602,171.268600 73.402344,169.516525 72.151749,168.246292 
	C81.388474,165.745834 82.294266,164.195587 79.545265,155.429153 
	C78.006210,150.521164 76.435547,145.623093 74.759590,140.346008 
z"/>
<path fill="#F89A21" opacity="1.000000" stroke="none" 
	d="
M160.023376,136.024689 
	C160.023376,132.228851 160.023376,128.929016 160.023376,125.313866 
	C162.065140,125.313866 163.767410,125.313866 165.827515,125.313866 
	C165.827515,135.737839 165.827515,145.995255 165.827515,157.018066 
	C168.907028,157.018066 171.679993,156.812866 174.392654,157.127518 
	C175.363663,157.240143 176.188965,158.608704 177.080765,159.404022 
	C176.120041,160.084427 175.183914,161.307663 174.194382,161.352524 
	C169.580856,161.561676 164.952576,161.445236 160.023361,161.445236 
	C160.023361,152.778458 160.023361,144.649567 160.023376,136.024689 
z"/>
<path fill="#628BA4" opacity="1.000000" stroke="none" 
	d="
M183.353455,109.627869 
	C184.682877,110.763367 186.012299,111.898865 188.126709,113.704842 
	C184.468338,114.691620 181.771332,115.419083 178.338531,116.345016 
	C181.580948,118.923439 184.224030,121.025253 186.867111,123.127075 
	C186.532013,123.595352 186.196915,124.063637 185.861816,124.531914 
	C181.942093,121.907310 178.022369,119.282707 174.102646,116.658104 
	C174.275024,115.945686 174.447418,115.233269 174.619812,114.520844 
	C177.047409,113.996284 179.496338,113.547714 181.883148,112.877815 
	C182.317902,112.755791 182.499054,111.730118 182.821960,110.636299 
	C183.015564,109.976624 183.184509,109.802246 183.353455,109.627869 
z"/>
<path fill="#628BA4" opacity="1.000000" stroke="none" 
	d="
M180.178375,109.227173 
	C180.031815,108.718460 180.063614,108.437157 180.170822,107.735977 
	C181.145355,107.918137 182.044464,108.520164 183.148529,109.375031 
	C183.184509,109.802246 183.015564,109.976624 182.571945,110.394058 
	C181.650421,110.242943 181.003555,109.848763 180.178375,109.227173 
z"/>
<path fill="#FFFCF9" opacity="1.000000" stroke="none" 
	d="
M132.880722,134.297424 
	C134.580597,130.215683 137.397980,128.538544 141.332947,129.100067 
	C145.369339,129.676056 147.523605,132.547424 147.841980,136.246307 
	C148.249207,140.976990 148.184128,145.792130 147.821335,150.532501 
	C147.486771,154.903809 143.945312,157.889175 140.349945,157.955521 
	C136.441132,158.027618 132.703033,155.006348 132.413208,150.447052 
	C132.080902,145.219437 132.592468,139.938171 132.880722,134.297424 
z"/>
</svg>