<svg version="1.1" id="Layer_1" xmlns="http://www.w3.org/2000/svg" xmlns:xlink="http://www.w3.org/1999/xlink" x="0px" y="0px"
	 width="100%" viewBox="0 0 225 225" enable-background="new 0 0 225 225" xml:space="preserve">
<path fill="#FDFEFF" opacity="1.000000" stroke="none" 
	d="
M122.000000,226.000000 
	C81.333336,226.000000 41.166672,226.000000 1.000005,226.000000 
	C1.000004,151.000000 1.000004,76.000015 1.000002,1.000015 
	C75.999992,1.000010 150.999985,1.000010 225.999969,1.000005 
	C225.999985,75.999985 225.999985,150.999969 226.000000,225.999969 
	C191.500000,226.000000 157.000000,226.000000 122.000000,226.000000 
M139.040085,33.513840 
	C127.430763,35.163235 115.821434,36.812630 104.509369,38.419792 
	C104.509369,62.276100 104.509369,85.484924 104.509369,108.525772 
	C137.302094,108.525772 169.680023,108.525772 202.000671,108.525772 
	C202.000671,80.456978 202.000671,52.759102 202.000671,24.620434 
	C180.995956,27.563532 160.449356,30.442444 139.040085,33.513840 
M202.406723,185.498932 
	C202.406723,163.402832 202.406723,141.306732 202.406723,118.764160 
	C169.404495,118.764160 136.899292,118.764160 104.366989,118.764160 
	C104.366989,142.251862 104.366989,165.495102 104.366989,188.924789 
	C137.063782,193.438080 169.517197,197.917770 202.407074,202.457703 
	C202.407074,196.448853 202.407074,191.473358 202.406723,185.498932 
M24.655783,149.499939 
	C24.655783,158.933899 24.655783,168.367859 24.655783,177.899643 
	C48.303173,181.151169 71.273766,184.309647 94.320862,187.478622 
	C94.320862,163.918350 94.320862,141.217987 94.320862,118.371033 
	C70.947250,118.371033 48.026562,118.371033 24.655491,118.371033 
	C24.655491,128.588928 24.655491,138.544418 24.655783,149.499939 
M94.772362,65.500031 
	C94.772362,57.069206 94.772362,48.638378 94.772362,40.241177 
	C93.696632,40.117176 93.191376,39.953629 92.718056,40.019508 
	C71.000473,43.042156 49.277271,46.028709 27.592709,49.273277 
	C26.371759,49.455956 24.688595,51.712635 24.566494,53.120720 
	C24.179962,57.578262 24.436865,62.091240 24.437538,66.582779 
	C24.439625,80.512245 24.438303,94.441719 24.438303,108.603531 
	C48.241131,108.603531 71.267242,108.603531 94.772209,108.603531 
	C94.772209,94.376320 94.772209,80.438179 94.772362,65.500031 
z"/>
<path fill="#01AFFE" opacity="1.000000" stroke="none" 
	d="
M139.471405,33.417595 
	C160.449356,30.442444 180.995956,27.563532 202.000671,24.620434 
	C202.000671,52.759102 202.000671,80.456978 202.000671,108.525772 
	C169.680023,108.525772 137.302094,108.525772 104.509369,108.525772 
	C104.509369,85.484924 104.509369,62.276100 104.509369,38.419792 
	C115.821434,36.812630 127.430763,35.163235 139.471405,33.417595 
z"/>
<path fill="#02AFFE" opacity="1.000000" stroke="none" 
	d="
M202.406891,185.998413 
	C202.407074,191.473358 202.407074,196.448853 202.407074,202.457703 
	C169.517197,197.917770 137.063782,193.438080 104.366989,188.924789 
	C104.366989,165.495102 104.366989,142.251862 104.366989,118.764160 
	C136.899292,118.764160 169.404495,118.764160 202.406723,118.764160 
	C202.406723,141.306732 202.406723,163.402832 202.406891,185.998413 
z"/>
<path fill="#03AFFE" opacity="1.000000" stroke="none" 
	d="
M24.655636,148.999939 
	C24.655491,138.544418 24.655491,128.588928 24.655491,118.371033 
	C48.026562,118.371033 70.947250,118.371033 94.320862,118.371033 
	C94.320862,141.217987 94.320862,163.918350 94.320862,187.478622 
	C71.273766,184.309647 48.303173,181.151169 24.655783,177.899643 
	C24.655783,168.367859 24.655783,158.933899 24.655636,148.999939 
z"/>
<path fill="#03AFFD" opacity="1.000000" stroke="none" 
	d="
M94.772285,66.000031 
	C94.772209,80.438179 94.772209,94.376320 94.772209,108.603531 
	C71.267242,108.603531 48.241131,108.603531 24.438303,108.603531 
	C24.438303,94.441719 24.439625,80.512245 24.437538,66.582779 
	C24.436865,62.091240 24.179962,57.578262 24.566494,53.120720 
	C24.688595,51.712635 26.371759,49.455956 27.592709,49.273277 
	C49.277271,46.028709 71.000473,43.042156 92.718056,40.019508 
	C93.191376,39.953629 93.696632,40.117176 94.772362,40.241177 
	C94.772362,48.638378 94.772362,57.069206 94.772285,66.000031 
z"/>
</svg>