<svg version="1.1" id="Layer_1" xmlns="http://www.w3.org/2000/svg" xmlns:xlink="http://www.w3.org/1999/xlink" x="0px" y="0px"
	 width="100%" viewBox="0 0 100 133" enable-background="new 0 0 100 133" xml:space="preserve">
<path fill="#0273C6" opacity="1.000000" stroke="none" 
	d="
M50.000000,134.000000 
	C48.611004,134.000000 47.222004,134.000000 45.249527,133.624603 
	C33.368332,132.000488 22.016771,130.948624 11.595555,125.841713 
	C7.243636,123.709053 3.162570,121.207764 1.905860,115.554047 
	C1.979742,86.113968 1.971187,57.139637 2.036283,28.165476 
	C2.040085,26.473341 2.639698,24.782545 3.030131,23.422813 
	C7.927656,26.818150 12.394636,31.299799 17.662956,32.646435 
	C28.209288,35.342182 39.194172,36.322212 50.007961,38.478493 
	C50.015163,46.977055 50.012394,55.007717 49.728203,63.242889 
	C42.034607,66.322250 38.317032,71.572823 38.234577,79.283119 
	C38.152405,86.967094 41.974072,92.148277 49.975716,95.644051 
	C49.990593,108.733925 49.995296,121.366966 50.000000,134.000000 
M25.734865,62.932861 
	C20.669952,63.248966 16.619219,65.109055 15.255528,70.447189 
	C14.164001,74.719955 16.588877,78.402977 22.053190,81.327797 
	C23.076933,81.875748 24.338177,82.218521 25.060560,83.035522 
	C26.167273,84.287201 26.901222,85.868477 27.793388,87.309853 
	C26.123072,88.143166 24.418535,89.713982 22.790392,89.638435 
	C20.295027,89.522636 17.852270,88.273094 15.363107,87.497223 
	C14.894704,94.222694 15.617009,95.072334 22.163496,95.256004 
	C23.983274,95.307060 26.210081,95.696609 27.551634,94.838646 
	C30.296959,93.082901 33.548283,91.031876 34.795815,88.286568 
	C36.480083,84.580154 34.771240,80.792282 30.960487,78.537529 
	C28.818207,77.269974 26.454895,76.300476 24.532810,74.768150 
	C23.573206,74.003128 22.731754,72.092384 23.029823,71.036713 
	C23.310186,70.043747 25.140734,68.908577 26.321777,68.871475 
	C28.723555,68.796036 31.147259,69.418755 33.563591,69.753998 
	C34.512413,63.322834 34.452942,63.263832 25.734865,62.932861 
z"/>
<path fill="#2788CE" opacity="1.000000" stroke="none" 
	d="
M50.428463,134.000000 
	C49.995296,121.366966 49.990593,108.733925 50.336334,95.613449 
	C52.251614,96.221016 54.265022,97.001129 55.296539,98.470528 
	C58.298466,102.746788 62.137165,103.563629 66.652046,102.383743 
	C64.269440,99.969246 61.883999,97.551865 59.844006,95.484550 
	C62.606186,92.219353 65.412338,89.937317 66.879448,86.988976 
	C73.285606,74.114998 65.071472,62.629982 50.009628,63.038376 
	C50.012394,55.007717 50.015163,46.977055 50.445316,38.384666 
	C52.028305,37.791306 53.187126,37.804337 54.339020,37.721279 
	C69.509552,36.627361 84.692612,35.569057 97.893600,25.894974 
	C98.809074,25.944040 99.331764,25.967682 99.924835,26.455872 
	C100.052551,56.620403 100.109894,86.320389 100.063385,116.361458 
	C97.567772,119.315117 95.648880,122.921600 92.685020,124.331741 
	C86.658752,127.198921 80.164055,129.247223 73.681465,130.940094 
	C67.914566,132.446075 61.903374,133.016602 56.000000,134.000000 
	C54.285641,134.000000 52.571285,134.000000 50.428463,134.000000 
M77.435425,63.510712 
	C76.285088,64.103172 74.144836,64.675201 74.132126,65.291145 
	C73.923950,75.375404 73.984413,85.465225 73.984413,96.259033 
	C80.433273,95.774162 86.105339,95.347702 91.930786,94.909698 
	C91.930786,92.719093 91.930786,91.130287 91.930786,89.009735 
	C88.297752,89.009735 84.889557,89.009735 80.954346,89.009735 
	C80.954346,81.538528 80.969231,74.591095 80.944603,67.643814 
	C80.937859,65.739502 81.549736,63.358448 77.435425,63.510712 
z"/>
<path fill="#FCFDFC" opacity="1.000000" stroke="none" 
	d="
M97.500839,25.869553 
	C84.692612,35.569057 69.509552,36.627361 54.339020,37.721279 
	C53.187126,37.804337 52.028305,37.791306 50.435349,37.916767 
	C39.194172,36.322212 28.209288,35.342182 17.662956,32.646435 
	C12.394636,31.299799 7.927656,26.818150 2.977394,23.117325 
	C2.237710,21.986767 1.618855,21.493383 1.000000,21.000000 
	C1.000000,14.354270 1.000000,7.708539 1.000018,1.061798 
	C34.333378,1.060788 67.666725,1.060788 101.000000,1.060788 
	C101.000000,7.435022 101.000000,13.748468 100.708672,20.628334 
	C99.950264,21.811241 99.483177,22.427727 98.954605,23.362038 
	C98.429016,24.409760 97.964928,25.139656 97.500839,25.869553 
M81.704453,25.949278 
	C84.448242,23.596191 88.895653,21.631067 89.540367,18.799965 
	C90.531342,14.448389 85.562576,12.676114 82.064560,11.568829 
	C61.406570,5.029618 40.629837,4.953403 19.961672,11.531955 
	C16.460598,12.646325 11.988371,14.054233 12.109860,18.718048 
	C12.235192,23.529337 16.832972,24.511683 20.501156,25.950426 
	C20.643770,26.006361 20.830118,25.950785 21.606401,26.394983 
	C32.816616,30.286222 44.467297,31.025064 56.100517,30.113962 
	C64.452003,29.459881 72.692184,27.384752 81.704453,25.949278 
z"/>
<path fill="#FAFCFE" opacity="1.000000" stroke="none" 
	d="
M56.468658,134.000000 
	C61.903374,133.016602 67.914566,132.446075 73.681465,130.940094 
	C80.164055,129.247223 86.658752,127.198921 92.685020,124.331741 
	C95.648880,122.921600 97.567772,119.315117 100.271828,116.366486 
	C100.584114,116.030434 101.000000,116.000000 101.000000,116.000000 
	C101.000000,121.958015 101.000000,127.916039 101.000000,134.000000 
	C86.312645,134.000000 71.624977,134.000000 56.468658,134.000000 
z"/>
<path fill="#F9FCFE" opacity="1.000000" stroke="none" 
	d="
M1.839614,116.019836 
	C3.162570,121.207764 7.243636,123.709053 11.595555,125.841713 
	C22.016771,130.948624 33.368332,132.000488 44.833023,133.624603 
	C30.438126,134.000000 15.876249,134.000000 1.000000,134.000000 
	C1.000000,128.317001 1.000000,122.628204 1.209634,116.486069 
	C1.419268,116.032715 1.839614,116.019836 1.839614,116.019836 
z"/>
<path fill="#E2EDF7" opacity="1.000000" stroke="none" 
	d="
M1.905860,115.554047 
	C1.839614,116.019836 1.419268,116.032715 1.209634,116.016357 
	C1.000000,84.645775 1.000000,53.291542 1.000000,21.468658 
	C1.618855,21.493383 2.237710,21.986767 2.909303,22.785641 
	C2.639698,24.782545 2.040085,26.473341 2.036283,28.165476 
	C1.971187,57.139637 1.979742,86.113968 1.905860,115.554047 
z"/>
<path fill="#E5F0F9" opacity="1.000000" stroke="none" 
	d="
M101.000000,115.531342 
	C101.000000,116.000000 100.584114,116.030434 100.375671,116.025406 
	C100.109894,86.320389 100.052551,56.620403 99.982010,26.115009 
	C99.651237,24.554468 99.333664,23.799339 99.016090,23.044212 
	C99.483177,22.427727 99.950264,21.811241 100.708672,21.097378 
	C101.000000,52.354229 101.000000,83.708458 101.000000,115.531342 
z"/>
<path fill="#F5F9FD" opacity="1.000000" stroke="none" 
	d="
M49.728203,63.242889 
	C65.071472,62.629982 73.285606,74.114998 66.879448,86.988976 
	C65.412338,89.937317 62.606186,92.219353 59.844006,95.484550 
	C61.883999,97.551865 64.269440,99.969246 66.652046,102.383743 
	C62.137165,103.563629 58.298466,102.746788 55.296539,98.470528 
	C54.265022,97.001129 52.251614,96.221016 50.326153,95.156616 
	C41.974072,92.148277 38.152405,86.967094 38.234577,79.283119 
	C38.317032,71.572823 42.034607,66.322250 49.728203,63.242889 
M50.522369,88.579025 
	C58.691437,89.848228 62.649048,85.128380 61.029625,76.048058 
	C59.878006,69.590744 54.686897,67.409035 48.290550,71.323639 
	C44.271904,77.977631 44.873955,83.840736 50.522369,88.579025 
z"/>
<path fill="#F4F8FC" opacity="1.000000" stroke="none" 
	d="
M26.171051,62.927460 
	C34.452942,63.263832 34.512413,63.322834 33.563591,69.753998 
	C31.147259,69.418755 28.723555,68.796036 26.321777,68.871475 
	C25.140734,68.908577 23.310186,70.043747 23.029823,71.036713 
	C22.731754,72.092384 23.573206,74.003128 24.532810,74.768150 
	C26.454895,76.300476 28.818207,77.269974 30.960487,78.537529 
	C34.771240,80.792282 36.480083,84.580154 34.795815,88.286568 
	C33.548283,91.031876 30.296959,93.082901 27.551634,94.838646 
	C26.210081,95.696609 23.983274,95.307060 22.163496,95.256004 
	C15.617009,95.072334 14.894704,94.222694 15.363107,87.497223 
	C17.852270,88.273094 20.295027,89.522636 22.790392,89.638435 
	C24.418535,89.713982 26.123072,88.143166 27.793388,87.309853 
	C26.901222,85.868477 26.167273,84.287201 25.060560,83.035522 
	C24.338177,82.218521 23.076933,81.875748 22.053190,81.327797 
	C16.588877,78.402977 14.164001,74.719955 15.255528,70.447189 
	C16.619219,65.109055 20.669952,63.248966 26.171051,62.927460 
z"/>
<path fill="#F8FBFD" opacity="1.000000" stroke="none" 
	d="
M77.860535,63.516258 
	C81.549736,63.358448 80.937859,65.739502 80.944603,67.643814 
	C80.969231,74.591095 80.954346,81.538528 80.954346,89.009735 
	C84.889557,89.009735 88.297752,89.009735 91.930786,89.009735 
	C91.930786,91.130287 91.930786,92.719093 91.930786,94.909698 
	C86.105339,95.347702 80.433273,95.774162 73.984413,96.259033 
	C73.984413,85.465225 73.923950,75.375404 74.132126,65.291145 
	C74.144836,64.675201 76.285088,64.103172 77.860535,63.516258 
z"/>
<path fill="#1886CD" opacity="1.000000" stroke="none" 
	d="
M98.954605,23.362038 
	C99.333664,23.799339 99.651237,24.554468 99.911636,25.650459 
	C99.331764,25.967682 98.809074,25.944040 97.893608,25.894974 
	C97.964928,25.139656 98.429016,24.409760 98.954605,23.362038 
z"/>
<path fill="#B8D433" opacity="1.000000" stroke="none" 
	d="
M20.996088,25.947168 
	C20.830118,25.950785 20.643770,26.006361 20.501156,25.950426 
	C16.832972,24.511683 12.235192,23.529337 12.109860,18.718048 
	C11.988371,14.054233 16.460598,12.646325 19.961672,11.531955 
	C40.629837,4.953403 61.406570,5.029618 82.064560,11.568829 
	C85.562576,12.676114 90.531342,14.448389 89.540367,18.799965 
	C88.895653,21.631067 84.448242,23.596191 81.055374,25.724691 
	C72.956375,24.121599 65.558075,22.173532 58.044922,21.492508 
	C45.461819,20.351921 32.952057,21.204885 20.996088,25.947168 
z"/>
<path fill="#82BB05" opacity="1.000000" stroke="none" 
	d="
M21.301245,26.171076 
	C32.952057,21.204885 45.461819,20.351921 58.044922,21.492508 
	C65.558075,22.173532 72.956375,24.121599 80.694168,25.721840 
	C72.692184,27.384752 64.452003,29.459881 56.100517,30.113962 
	C44.467297,31.025064 32.816616,30.286222 21.301245,26.171076 
z"/>
<path fill="#2888CE" opacity="1.000000" stroke="none" 
	d="
M48.927677,70.961884 
	C54.686897,67.409035 59.878006,69.590744 61.029625,76.048058 
	C62.649048,85.128380 58.691437,89.848228 50.267738,87.818542 
	C49.651299,81.692665 49.289486,76.327278 48.927677,70.961884 
z"/>
<path fill="#0976C8" opacity="1.000000" stroke="none" 
	d="
M48.609116,71.142761 
	C49.289486,76.327278 49.651299,81.692665 50.007599,87.524796 
	C44.873955,83.840736 44.271904,77.977631 48.609116,71.142761 
z"/>
</svg>